<svg data-v-0dd9719b="" version="1.0" xmlns="http://www.w3.org/2000/svg" xmlns:xlink="http://www.w3.org/1999/xlink" width="100%" height="100%" viewBox="0 0 340.000000 250.000000" preserveAspectRatio="xMidYMid meet" color-interpolation-filters="sRGB" style="margin: auto;"> <rect data-v-0dd9719b="" x="0" y="0" width="100%" height="100%" fill="#fff" fill-opacity="1" class="background"></rect> <rect data-v-0dd9719b="" x="0" y="0" width="100%" height="100%" fill="url(#watermark)" fill-opacity="1" class="watermarklayer"></rect> <g data-v-0dd9719b="" fill="#333" class="icon-text-wrapper icon-svg-group iconsvg" transform="translate(56.26499938964844,95.00899696350098)"><g class="iconsvg-imagesvg" transform="translate(0,0)"><g><rect fill="#333" fill-opacity="0" stroke-width="2" x="0" y="0" width="60" height="59.98200539838049" class="image-rect"></rect> <svg x="0" y="0" width="60" height="59.98200539838049" filtersec="colorsb571971445" class="image-svg-svg primary" style="overflow: visible;"><svg xmlns="http://www.w3.org/2000/svg" viewBox="-0.001997709274291992 -0.006227812729775906 113.42240142822266 113.38801574707031"><path d="M37.06 4.84l-1.12.62a3.24 3.24 0 0 1-.53 0c-.24 0-.37-.08-.41-.17l-3.56 1.65-.94.46a38.71 38.71 0 0 1 8.6-3.63l-1.76.92-.28.15z" fill="#8bc53f"></path><path d="M39 4.4c-.06.35-.13.4-.15.42a18 18 0 0 1-2.23.55l-2.11 1.7a3.83 3.83 0 0 1-.63.51s1-1.7 5.22-3.81l-.1.54v.09z" fill="#8bc53f"></path><path d="M41.06 3.57a7.44 7.44 0 0 1 .95 0c-.3.16-.65.33-1.06.5s-.76.31-1.15.45l.71.92c.24.35.09.33.06.32s-1.74-.79-1.47-2l1.69-.18h.27zM41.84 2.92c.21-.06.94-.27 1.42-.37 0 .16-.2.39-.64.67L45.85 3h.83-.16c-1.62.13-4.33.35-7.42.73L41.46 3l.38-.1zM16.85 29.63c-.39.76-.77 1.2-1.13 1.31a27.58 27.58 0 0 1-4.61 0c-2-.18-3.17-.68-3.53-1.43l-1.73 3.31a3.87 3.87 0 0 1-.45.83s.69-3.38 5.16-10a33.4 33.4 0 0 1 6.81-6.83 1.19 1.19 0 0 1 .15-.09A48.83 48.83 0 0 1 14 20.51c.28.57 1.16.95 2.7 1.09a22.13 22.13 0 0 0 3.53 0l.12.06c.12.63.12.63-3.06 3.64-.76.8-1 1-.27 4a3.13 3.13 0 0 0-.15.32z" fill="#8bc53f"></path><path d="M41.82 24a1.45 1.45 0 0 1-.74 1.4 159.28 159.28 0 0 1-19.36 4.8L21 33.47c-.28 1.23-.63 1-.7.91S18 32 17.15 26.61c0-.78 0-.78 9.09-9.27a.7.7 0 0 1 .23-.17c.05.2.05.2-1.66 3.8a123.63 123.63 0 0 0 14.81-3.67c.38-.07.64.12.92.68-.56.86-1.31 2-1.89 2.86s-.48 1 3.15 2.83a2.83 2.83 0 0 1 0 .29z" fill="#8bc53f"></path><path d="M68.38 13.26c.67.69.46 1 .3 1.16-2.66 1.37-5.76 2.81-9.26 4.29-3.27 1.38-6.66 2.69-10.07 3.9l1.19 2.79c.47 1.23.65 1.73-6.57-1.52-1.3-.58-3-1.45-4.24-2.12-.65-.48-.65-.48 1.36-3.58a43.6 43.6 0 0 0 3-5.65.52.52 0 0 1 .16-.17c.32.05.32.05 1.7 2.83 2.61-.93 5.21-1.93 7.71-3 2.67-1.13 5-2.23 7.08-3.29.3-.06.57-.11 1.55.29.18.69.45 1.59.56 2.29.3.68.3.68 5.3 1.55l.23.21z" fill="#8bc53f"></path><path d="M78.44 4.82a5.06 5.06 0 0 1 1.28.69c.07 1.46-2 3.51-5.79 5.93l2.93 2c.55.42.56.52.58.68s-.13.09-3.75-.59c-2.19-.42-7.14-1.25-9-1.56-.86-.2-1.09-.59-1.15-.82-.71-2.57-1-3.64-3.27-5.88l-.06-.08c.35-.06.35-.06 4.54 1.49 2.92-1.85 4.48-3.42 4.45-4.49.35-.1.86-.24 4.31 1.44.31.14.31.14 4.58 1.09l.34.14zM13.36 65.47c0 .61-.13 1.37-.71 1.53a40.83 40.83 0 0 1-6.77.07c-2.95-.26-4.64-1-5.17-2.1l.67 3.79c.14.66.14.66.18.9a13.48 13.48 0 0 1-.36-1.51l-.49-2.67c-.72-6-.72-6-.71-9.14.07-1.53.12-3.58.26-5.11.13-.79.31-1.85.52-2.63 0 0 0-.1.06-.12s0 0-.54 5.23c.5 1 2.09 1.73 4.88 2a38.2 38.2 0 0 0 6.38-.06c.44 0 .7.41.93 1.31-.69 1-1.61 2.35-2.28 3.37s-.49 1.3 3.13 4.79v.38z" fill="#8bc53f"></path><path d="M50.82 57a1.81 1.81 0 0 1-1 1.86 233.43 233.43 0 0 1-28.39 7l.87 3.8c.33 1.52-.52 1-.61 1a56.47 56.47 0 0 1-10.4-8.71c-.79-1-.95-1.26 7.6-12.23a1.31 1.31 0 0 1 .33-.25c.4.18.4.18.64 5.1a219.66 219.66 0 0 0 26.75-6.63c.69-.14 1.19.12 1.73.89-.88 1.26-2.05 2.94-2.94 4.2-.7 1.24-.7 1.24 5.37 3.58V57z" fill="#8bc53f"></path><path d="M90.66 40.92a1.67 1.67 0 0 1-.4 1.87c-3.9 2-8.44 4.13-13.56 6.29-4.8 2-9.77 3.94-14.77 5.72l1.27 3.69c.51 1.74.65 2.21-15.86-4.32-1-.55-.6-1.37-.59-1.38 2.54-4.53 5.85-8.55 8.62-12.92a1.38 1.38 0 0 1 .36-.32c.59 0 .59 0 2.32 4.55 4.71-1.67 9.4-3.48 13.91-5.39 4.84-2 9.12-4 12.79-5.93.6-.12 1-.06 1.72.66-.35 1.26-.81 3-1.21 4.19-.26 1.07-.26 1.07 5.28 2.93 0 .1.09.25.12.36z" fill="#8bc53f"></path><path d="M105.75 28.26a11.64 11.64 0 0 1 .73 1.46c.06 2.15-2.94 5.16-8.52 8.7L99.61 42c.55 1.39-.11 1.2-.19 1.17-4.13-1.39-8.08-3.25-12.23-4.58-1.09-.46-1.09-.46.15-4.95A40.26 40.26 0 0 0 88.43 25c0-.16 0-.23.1-.29.43-.06.43-.06 3.5 3.92 5.26-3.34 8.08-6.18 8-8.12.2.06.81.24 2.75 4.06a23 23 0 0 0 2.74 3.33l.19.33zM28.4 98.49c.38.59.38.93 0 1a36.65 36.65 0 0 1-6.06.07c-2.1-.19-3.48-.64-4.21-1.31-1.7-1.72-3.92-4.07-5.51-5.9l-2.07-2.75c.65.92 2.25 1.53 4.87 1.77a40.76 40.76 0 0 0 6.58-.05 2.62 2.62 0 0 1 1.64 1c-.22.78-.55 1.8-.72 2.59s.13 1 5.29 3.31c.06.08.13.17.18.25z" fill="#8bc53f"></path><path d="M62.6 90.73a1.35 1.35 0 0 1-.87 1.45 207.09 207.09 0 0 1-25.44 6.31l2.08 2.4a3 3 0 0 1 .32.47l-.13.21s-5-1.23-13.77-5.48c-.94-.54-1.9-1.09 2.72-10a.82.82 0 0 1 .27-.22c.5.06.5.06 2.8 4.3a224.1 224.1 0 0 0 27.62-6.81 1.72 1.72 0 0 1 1.82.73l-2.76 3.72c-.6 1-.6 1 5.29 2.63a1.47 1.47 0 0 1 .05.29z" fill="#8bc53f"></path><path d="M99 76.08a2.7 2.7 0 0 1-1 1.73c-3.49 1.81-7.57 3.7-12.16 5.64-4.3 1.81-8.76 3.53-13.24 5.13l.71 2.77c.18 1.34.18 1.34-14.07-2.67-1-.4-1-.4 8.39-13.35A1 1 0 0 1 68 75c.63 0 .63 0 2 4.43 4.86-1.73 9.7-3.6 14.36-5.56 5-2.1 9.41-4.16 13.21-6.12.41-.1.77-.17 1.13.76-.76 1.3-1.77 3-2.58 4.31-.54 1-.54 1 2.89 2.92v.34z" fill="#8bc53f"></path><path d="M113.38 58.15l-.11 2c-.07.77-.11 1.54-.17 2.31l-.17 1.45-.42 2.72c-.33 1.83-3 4.36-7.62 7.3l-.49 3.33c-.21 1-.43 1-.56 1.07a21.36 21.36 0 0 0-6.53-4.54c-.6-.43-.25-1.18-.07-1.49A83.25 83.25 0 0 0 104 59a.68.68 0 0 1 .22-.34h.14c.27.27.27.27.75 4.84 5.44-3.45 8.35-6.38 8.31-8.38v3zM55.49 113.19a3.09 3.09 0 0 1 .77.12 18.85 18.85 0 0 1-2.31.06l-2.25-.15a56.74 56.74 0 0 1-9.28-1.62l-.49-.13a9 9 0 0 0 1.5.25 23.88 23.88 0 0 0 3.94 0A8.61 8.61 0 0 1 49 112a12.59 12.59 0 0 1 1.09.7c.21.08.84.31 5.15.51h.27z" fill="#8bc53f"></path><path d="M71.74 109.5c.05.28-.16.4-.35.47a95.08 95.08 0 0 1-11.59 2.88l2.46.12h.44s-3.13.49-10.82-.1a3.07 3.07 0 0 1-3.11-3.27s.07-.09.11-.1c.33 0 .33 0 3.62 1.51a135.29 135.29 0 0 0 16.5-4.1 1.26 1.26 0 0 1 1.12.23c-.43.49-1 1.14-1.41 1.64l-.07.16c.13.27.13.27 3 .47a.32.32 0 0 1 0 .09z" fill="#8bc53f"></path><path d="M89 102.54a9.69 9.69 0 0 1-1 .83c-1.69.88-3.55 1.74-5.64 2.62s-4 1.61-6 2.34l-.1.82c-.15.34-.16.37-6.33-.16-.81-.12-.81-.12 5.17-6.47a1 1 0 0 1 .29-.2c.4 0 .4 0 .74 2.24 2.91-1 5.81-2.16 8.6-3.33 3-1.26 5.63-2.49 7.9-3.67h.16c.17.42.17.42-2.87 3.11-.26.24-.26.24-.67 1.72l-.2.19z" fill="#8bc53f"></path><path d="M97.49 96.06c-1.33 1.31-3.17 3-4.57 4.26a18.48 18.48 0 0 1-1.87 1.32l-2.36 1.86-.77.53c1.38-1.16 1.9-1.6 1.91-2.85 0-.14.1-.33.67-.86a89.45 89.45 0 0 0 8.43-8.51 1.72 1.72 0 0 1 .24-.24h.06A24.59 24.59 0 0 1 97.11 95a18 18 0 0 0 4.29-3.47c-1.15 1.38-2.66 3.23-3.91 4.52z" fill="#8bc53f"></path><path d="M55.91 0A43 43 0 0 1 67 1.26h.13c-.1 0-.1 0-4.6-.51.36.75-.57 1.91-2.6 3.32-.57.11-.57.11-4.13-1.15-.79-.22-.86-.22-4.88 0a4.88 4.88 0 0 1-1.08-.15C50.9 2 51.39 1.37 51.2 1l-4.2.63-1.05.21a72.48 72.48 0 0 1 9-1.75c.14 0 .46 0 1-.07z" fill="#2eaecc"></path><path d="M55.05 3c.31 0 3.16.59 5.87 4.13v.1c-.17.14-.17.14-3.92-1.38-1.86 1-4.16 2.12-6.83 3.25-1.44.61-2.92 1.19-4.42 1.75-.38.08-.74-.12-1.17-.63.12-.58.31-1.35.37-1.94C45 8 45 8 42.33 6.93c-.19-.36-.15-.44-.1-.55.84-.33 1.63-.64 2.4-1a38.93 38.93 0 0 0 3.65-1.73L45 3.42a3.44 3.44 0 0 1-.74 0s2.89-.24 9.75-.44a6.62 6.62 0 0 1 1 .07z" fill="#2eaecc"></path><path d="M44.41 8.18s.44 1.35-2.47 6.92c-.28.44-.51 0-.55-.08s0-.11-.63-2.42a104.78 104.78 0 0 1-12.09 3.21h-.08c-.31-.56-.31-.56 2.66-3.4a2.62 2.62 0 0 0 .54-.78c.22-.59.21-1.23.43-1.82a4.94 4.94 0 0 1 .85-.81 59 59 0 0 0 6.51-1.73l-.26-1.5v-.35c.7.39 1.27 1 2 1.34a21.82 21.82 0 0 0 2.61 1 1 1 0 0 1 .47.36z" fill="#2eaecc"></path><path d="M31.15 12.09c-.21.3-.21.3-8.17 7.63a.79.79 0 0 1-.23.17h-.07c.06-.32.06-.32 2.11-3.43a20.11 20.11 0 0 1-4 .15 3.44 3.44 0 0 1-1.94-.6c.42-.81 1.47-1.5 4-3.18 1.33-.9 2.47-2 3.75-3 .27-.17.89-.55 1.21-.7a2.06 2.06 0 0 0 1.07.31A11.28 11.28 0 0 0 31 9.33l2.66-2.2a5.22 5.22 0 0 1 .74-.5c-2.56 2.81-2.56 2.81-3 4.86a1.66 1.66 0 0 1-.3.6zM88.9 9.77a53.65 53.65 0 0 1 6.95 5.65l.4.39L98 17.67l.14.16a30.48 30.48 0 0 1-3.29-3.14c.76 1.6-1.22 4.09-5.55 7.1-.72.28-1.87-.84-1.88-.85-.54-.88-.43-2.36-.7-3.36s-.37-.92-5.08-2c-.57-.64-.71-1-.51-1.2 3.77-2.62 5.5-4.79 4.84-6.18l-3.58-1.9a5.36 5.36 0 0 1-.94-.51A18.24 18.24 0 0 1 85 7.32c1.17.73 2.77 1.65 3.89 2.45z" fill="#2eaecc"></path><path d="M85.88 17.49s1.59 2.89.7 11.28a.84.84 0 0 1-.25.34c-.42-.08-.42-.08-3.14-3.59a154.88 154.88 0 0 1-14.58 6.94c-3.08 1.3-6.24 2.55-9.44 3.74-.79.19-1.4-.14-2-1.06.67-1.2 1.56-2.81 2.2-4 .37-1 .37-1-5.08-2.66-.09-.8.08-1.23.61-1.5 2.78-1 5.53-2.12 8.21-3.25a137.28 137.28 0 0 0 12.69-6l-2.94-2.55c-.42-.36-.46-.48-.52-.64l.06-.1c.49-.08 7.65 1.37 12.55 2.54a2 2 0 0 1 .93.57z" fill="#2eaecc"></path><path d="M58.19 31c.16.74-4.4 8.09-7.5 12.85-.77 1-.77 1-2.26-3.88A225.08 225.08 0 0 1 22.6 46.8c-.63 0-1-.46-1.11-1.54l3-3.68c.55-.8.55-.8-2.47-3.94a2.3 2.3 0 0 1 .9-1.4 202.19 202.19 0 0 0 22.64-6l-1-3.36c-.13-.52-.07-.81.18-.94 1.11 0 2.43.86 3.46 1.27 1.32.51 4 1.46 9.25 3.05a1.13 1.13 0 0 1 .75.73z" fill="#2eaecc"></path><path d="M23.65 41.17c-.07.35-.07.35-2.7 3.59-1.88 2.34-3.94 5-6.1 7.82-.59.69-.67-.39-.68-.52-.07-1.18.09-2.76.13-4a43.43 43.43 0 0 1-8.48.31c-2.05-.19-3.41-.62-4.13-1.27-.33-1.35.3-2.43 1.56-4.57.84-1.56.6-3.32.91-5a4.72 4.72 0 0 1 .57-1.06 7.62 7.62 0 0 0 3.7 1.06 37.08 37.08 0 0 0 7.37-.26l1-3.83c.19-.61.34-.88.56-1a.52.52 0 0 1 .18.15 24.6 24.6 0 0 0 5.89 7.54 1 1 0 0 1 .25.93zM110.46 38.52c.62 2.13 1.41 5 1.89 7.14l.24 1.33c.31 1.81-2 4.44-6.45 7.56-.71.29-1.11-1.26-1.11-1.28 0-1.41.82-3.18 1.1-4.56s0-1.5-3.41-3.46c-.17-1-.12-1.52.2-1.84 4.86-3.37 7.14-6.17 6.41-8l1.13 3.11z" fill="#2eaecc"></path><path d="M107.88 32.08l-.35-.72c-.13-.26-.25-.51-.45-.9l.8 1.62z" fill="#ec1c24"></path><path d="M105.45 48.47s-.26 4.39-4.76 14.35c-.18.32-.18.32-.44.38-.26-.22-.26-.22-1-4.42a177.68 177.68 0 0 1-16.53 7.87c-3.49 1.47-7.07 2.89-10.7 4.24-.87.21-1.51-.14-2-1.15.93-1.4 2.18-3.26 3.1-4.67.64-1.23.64-1.23-5.6-3.24a1.84 1.84 0 0 1 1-1.92c3.66-1.36 7.27-2.79 10.8-4.28a179.6 179.6 0 0 0 16.57-7.93l-1.65-4c-.33-.79-.23-1 0-1.18A44.6 44.6 0 0 1 105 47.56a1.42 1.42 0 0 1 .5.91z" fill="#2eaecc"></path><path d="M71.7 64.92c0 .74-5.88 9.1-9.43 14-.84.9-.84.9-2.47-3.82a253.32 253.32 0 0 1-29.28 7.76c-.76 0-1.37-.39-2-1.41.68-1.13 1.57-2.63 2.26-3.75.42-.91.42-.91-5-4.07 0-1 .21-1.34.79-1.62a259 259 0 0 0 29.53-7.8l-1.38-4.15c-.17-.65-.09-1 .26-1.2s.32 0 4.73 1.49c0 0 3.38 1.17 11.24 3.69a1 1 0 0 1 .75.88z" fill="#2eaecc"></path><path d="M29.6 77.34c0 .36 0 .36-1.93 3.69-.83 1.41-2.16 3.81-3.76 7.28-.31.5-.8-.12-.89-.25s-.16-.23-1.9-3.67a49.1 49.1 0 0 1-9.62.34c-2.32-.21-3.86-.7-4.68-1.44a8.92 8.92 0 0 1-1.66-4.36c-.37-2-1.63-3.52-2.36-5.32a4.54 4.54 0 0 1-.22-1.14c.87.71 2.43 1.21 4.77 1.42a49.77 49.77 0 0 0 9.65-.34l-1-4.22c-.13-.69-.09-.92.19-1.09.21 0 .21 0 3.45 2.46a85.19 85.19 0 0 0 9.28 5.69 1.42 1.42 0 0 1 .72 1zM107.86 81c-.58 1.13-1.33 2.65-2 3.76a14 14 0 0 1-4.08 3.8h-.08c-.18-.25-.18-.25 2.77-4.61.66-1 .8-1.26 0-2.94a4 4 0 0 1 .91-1.56c2.94-2 4.72-3.83 5.18-5.22-.76 2-1.75 4.77-2.7 6.73z" fill="#2eaecc"></path><path d="M104.33 83.82s-2.17 3.75-8.33 10.56a2.5 2.5 0 0 1-.24.22l-.07-.14 1.41-2.95a124.31 124.31 0 0 1-11.36 5.41c-2.4 1-4.86 2-7.35 2.91a.86.86 0 0 1-1.17-.61c.83-.91 1.94-2.12 2.76-3 .67-.86.67-.86-3.52-1.91a1.67 1.67 0 0 1 1-1.37c3-1.1 5.9-2.26 8.76-3.47A145.17 145.17 0 0 0 99.68 83l.57-3.45a1.47 1.47 0 0 1 .44-1h.15c2 1.59 2.85 2.31 3.68 4.59a1.54 1.54 0 0 1-.19.76z" fill="#2eaecc"></path><path d="M79 96.13c0 .19 0 .19-7.51 8.5-.55.46-.55.46-1.56-1.89a175.49 175.49 0 0 1-20.11 5.34 3.3 3.3 0 0 1-1.94-.56c.18-.59.43-1.37.65-1.94 0-.5 0-.5-5.29-1.91-.33-.56-.17-.7 0-.89a213.88 213.88 0 0 0 24.09-6.4l-.97-2.78c-.13-.51-.12-.65.24-.88.3 0 .41-.06 12.06 2.87.3.16.43.24.38.54z" fill="#2eaecc"></path><path d="M47.51 105.44c.11.16.11.16-.41 1.9a5.71 5.71 0 0 0 0 3.25c-.29.17-.29.17-3.75-1.49a33 33 0 0 1-6.6.24 8.09 8.09 0 0 1-2.47-.53l-.48-.21a55.85 55.85 0 0 1-7.9-4.26l-1.61-1.09a7.63 7.63 0 0 0 3.58 1 39.93 39.93 0 0 0 7.86-.28l-2.66-2.4a1.17 1.17 0 0 1-.39-.54 1.36 1.36 0 0 1 .12-.12.91.91 0 0 1 .4.08 117 117 0 0 0 13.42 4 1.8 1.8 0 0 1 .85.46zM78.67 109l-1.68.68h-.36a3 3 0 0 1 .56-.32c1-.37 2-.76 2.93-1.16 1.47-.62 2.76-1.23 3.86-1.8a56.7 56.7 0 0 1-5.31 2.6zM85.19 105.72l1.91-1.3c.46-.34.6-.45.71-.52a10.14 10.14 0 0 1-1 .84l-1.64 1zM75.38 110.26c-1.29.44-1.7.58-3.09 1l-1.69.45c-1.21.3-1.28.32-1.93.46l-1.21.25-1.13.2-.53.06a74.44 74.44 0 0 0 8-2.14l-.38-.45c0-.12 0-.16.11-.23 1-.25 2.09.08 3.13-.07l-1.32.48z" fill="#2eaecc"></path><path d="M66.35 112.61c-1.88.3-2 .32-3.06.45h-.15l-3.06.21h-.62a68.41 68.41 0 0 0 7.44-.75l-.55.1z" fill="#2eaecc"></path></svg></svg> <!----></g></g> <g transform="translate(67,2.3797550201416016)"><g data-gra="path-name" fill-rule="" class="tp-name iconsvg-namesvg" transform="translate(0,0)"><g transform="scale(1)"><g><path d="M38.7-0.18L33.44 3.6 20.75-14.98 14.71-14.98 14.71-2.88 21.87-2.88 21.87 3.19 8.19 3.19 8.19-14.98 3.1-14.98 3.1-21.06 8.19-21.06 8.19-35.95 14.71-35.95 14.71-21.06 38.66-21.06 38.66-14.98 28.57-14.98 38.7-0.18ZM18.13-26.23L18.13-32.31 35.68-32.31 35.68-26.23 18.13-26.23ZM70.33-12.91L63.81-12.91 63.81-36.09 70.33-36.09 70.33-12.91ZM45-35.95L51.52-35.95 51.52-27.4 45-27.4 45-35.95ZM79.11-18.45L72.76-18.45 72.76-32.31 79.11-32.31 79.11-18.45ZM61.11-14.04L54.76-14.04 54.76-32.27 61.11-32.27 61.11-14.04ZM45-25.88L51.52-25.88 51.52-17.32 45-17.32 45-25.88ZM78.12-16.61L81.58-11.07 57.15 4.18 53.68-1.35 78.12-16.61ZM51.52-15.66L51.52 3.69 45 3.69 45-15.66 51.52-15.66ZM88.24-29.97L88.24-35.19 120.06-35.19 120.06-16.2 87.88-16.2 87.88-21.42 113.53-21.42 113.53-23.18 89.05-23.18 89.05-28.26 113.53-28.26 113.53-29.97 88.24-29.97ZM107.59-14.58L107.59-6.79 122.98-2.25 121.27 3.92 104.31-1.08 87.39 3.82 85.72-2.34 101.07-6.79 101.07-14.58 107.59-14.58ZM89.23-14.58L95.53-14.58 95.53-6.52 89.23-6.52 89.23-14.58ZM113.13-14.58L119.43-14.58 119.43-6.52 113.13-6.52 113.13-14.58ZM140.17-27.45L140.17-16.79 134.05-16.79 134.05-27.45 128.43-27.45 128.43-33.52 133.87-33.52 133.87-35.91 140.4-35.91 140.4-33.52 145.35-33.52 145.35-27.45 140.17-27.45ZM151.47-35.91L157.99-35.91 157.99-33.52 163.57-33.52 163.57-27.45 157.72-27.45 157.72-16.79 151.69-16.79 151.69-27.45 146.34-27.45 146.34-33.52 151.47-33.52 151.47-35.91ZM128.79-16.79L128.79-26.19 133.15-26.19 133.15-16.79 128.79-16.79ZM145.39-26.19L145.39-16.79 141.07-16.79 141.07-26.19 145.39-26.19ZM150.79-16.79L146.38-16.79 146.38-26.19 150.79-26.19 150.79-16.79ZM162.99-26.19L162.99-16.79 158.62-16.79 158.62-26.19 162.99-26.19ZM136.35-9.72L136.35-6.03 129.82-6.03 129.82-15.57 161.55-15.57 161.55-2.16 130.18 3.96 128.83-1.98 140.26-4.18 140.26-8.05 146.79-8.05 146.79-5.44 155.02-7.06 155.02-9.72 136.35-9.72Z" transform="translate(-3.0999999046325684, 36.09000015258789)"></path></g> <!----> <!----> <!----> <!----> <!----> <!----> <!----></g></g> <g data-gra="path-slogan" fill-rule="" class="tp-slogan iconsvg-slogansvg" fill="#333" transform="translate(5,46.27000045776367)"><rect x="0" height="1" y="3.9750003814697266" width="5.510002136230469"></rect> <rect height="1" y="3.9750003814697266" width="5.510002136230469" x="144.95999908447266"></rect> <g transform="translate(8.510002136230469,0)"><g transform="scale(1)"><path d="M8.06-6.05L8.06-6.05L6.94-6.05Q6.52-7.78 4.55-7.83L4.55-7.83Q1.83-7.69 1.73-4.36L1.73-4.36Q1.73-0.80 4.59-0.80L4.59-0.80Q6.56-0.84 7.03-3.19L7.03-3.19L8.16-3.19Q7.64 0.05 4.36 0.14L4.36 0.14Q0.61 0 0.52-4.31L0.52-4.31Q0.70-8.63 4.55-8.81L4.55-8.81Q7.59-8.72 8.06-6.05ZM10.69-5.06L15.19-5.06L15.19-8.58L16.36-8.58L16.36 0L15.19 0L15.19-3.98L10.69-3.98L10.69 0L9.52 0L9.52-8.58L10.69-8.58L10.69-5.06ZM23.81 0L22.97-2.48L19.50-2.48L18.61 0L17.44 0L20.67-8.58L21.98-8.58L25.08 0L23.81 0ZM21.23-7.31L19.88-3.52L22.55-3.52L21.28-7.31L21.23-7.31ZM27.52-8.58L31.83-1.64L31.83-8.58L32.95-8.58L32.95 0L31.64 0L27.28-6.94L27.23-6.94L27.23 0L26.11 0L26.11-8.58L27.52-8.58ZM41.16-3.61L38.53-3.61L38.53-4.59L42.28-4.59L42.28 0L41.53 0L41.25-1.08Q40.27 0.09 38.44 0.14L38.44 0.14Q36.70 0.14 35.77-0.75L35.77-0.75Q34.36-2.06 34.41-4.36L34.41-4.36Q34.73-8.63 38.48-8.81L38.48-8.81Q41.67-8.63 42.14-6L42.14-6L41.02-6Q40.55-7.78 38.44-7.83L38.44-7.83Q35.77-7.64 35.63-4.31L35.63-4.31Q35.63-0.75 38.48-0.75L38.48-0.75Q39.52-0.75 40.27-1.31L40.27-1.31Q41.20-2.06 41.16-3.61L41.16-3.61ZM50.34-6.09L50.34-6.09L49.27-6.09Q49.17-7.73 47.11-7.83L47.11-7.83Q45.19-7.78 45.19-6.33L45.19-6.33Q45.19-5.39 46.22-5.25L46.22-5.25L48.66-4.69Q50.58-4.22 50.58-2.34L50.58-2.34Q50.53 0.05 47.20 0.14L47.20 0.14Q45.38 0.14 44.63-0.61L44.63-0.61Q43.69-1.31 43.73-2.77L43.73-2.77L44.86-2.77Q44.91-0.80 47.20-0.75L47.20-0.75Q49.45-0.80 49.50-2.20L49.50-2.20Q49.69-3.38 47.63-3.75L47.63-3.75L45.84-4.13Q44.02-4.64 44.02-6.19L44.02-6.19Q44.16-8.72 47.02-8.81L47.02-8.81Q50.25-8.81 50.34-6.09ZM53.20-5.06L57.70-5.06L57.70-8.58L58.88-8.58L58.88 0L57.70 0L57.70-3.98L53.20-3.98L53.20 0L52.03 0L52.03-8.58L53.20-8.58L53.20-5.06ZM66.33 0L65.48-2.48L62.02-2.48L61.13 0L59.95 0L63.19-8.58L64.50-8.58L67.59 0L66.33 0ZM63.75-7.31L62.39-3.52L65.06-3.52L63.80-7.31L63.75-7.31ZM71.95-8.58L73.13-8.58L73.13-1.03L77.48-1.03L77.48 0L71.95 0L71.95-8.58ZM78.80-8.58L79.97-8.58L79.97 0L78.80 0L78.80-8.58ZM83.34-8.58L87.66-1.64L87.66-8.58L88.78-8.58L88.78 0L87.47 0L83.11-6.94L83.06-6.94L83.06 0L81.94 0L81.94-8.58L83.34-8.58ZM96.98-3.61L94.36-3.61L94.36-4.59L98.11-4.59L98.11 0L97.36 0L97.08-1.08Q96.09 0.09 94.27 0.14L94.27 0.14Q92.53 0.14 91.59-0.75L91.59-0.75Q90.19-2.06 90.23-4.36L90.23-4.36Q90.56-8.63 94.31-8.81L94.31-8.81Q97.50-8.63 97.97-6L97.97-6L96.84-6Q96.38-7.78 94.27-7.83L94.27-7.83Q91.59-7.64 91.45-4.31L91.45-4.31Q91.45-0.75 94.31-0.75L94.31-0.75Q95.34-0.75 96.09-1.31L96.09-1.31Q97.03-2.06 96.98-3.61L96.98-3.61ZM108.14-8.58L108.14 0L107.02 0L107.02-5.06Q107.02-5.77 107.02-7.22L107.02-7.22L104.58 0L103.41 0L101.02-7.22L100.97-7.22Q100.97-6.70 101.02-5.67L101.02-5.67Q101.02-5.16 101.02-5.06L101.02-5.06L101.02 0L99.84 0L99.84-8.58L101.53-8.58L104.02-1.31L106.45-8.58L108.14-8.58ZM111.14-1.03L116.30-1.03L116.30 0L109.97 0L109.97-8.58L116.20-8.58L116.20-7.59L111.14-7.59L111.14-4.92L115.83-4.92L115.83-3.89L111.14-3.89L111.14-1.03ZM119.20-8.58L123.52-1.64L123.52-8.58L124.64-8.58L124.64 0L123.33 0L118.97-6.94L118.92-6.94L118.92 0L117.80 0L117.80-8.58L119.20-8.58ZM132.84-3.61L130.22-3.61L130.22-4.59L133.97-4.59L133.97 0L133.22 0L132.94-1.08Q131.95 0.09 130.13 0.14L130.13 0.14Q128.39 0.14 127.45-0.75L127.45-0.75Q126.05-2.06 126.09-4.36L126.09-4.36Q126.42-8.63 130.17-8.81L130.17-8.81Q133.36-8.63 133.83-6L133.83-6L132.70-6Q132.23-7.78 130.13-7.83L130.13-7.83Q127.45-7.64 127.31-4.31L127.31-4.31Q127.31-0.75 130.17-0.75L130.17-0.75Q131.20-0.75 131.95-1.31L131.95-1.31Q132.89-2.06 132.84-3.61L132.84-3.61Z" transform="translate(-0.515625, 8.8125)"></path></g></g></g></g></g><defs v-gra="od"></defs></svg>